<svg id="visual" viewBox="0 0 900 600" width="900" height="600" xmlns="http://www.w3.org/2000/svg" xmlns:xlink="http://www.w3.org/1999/xlink" version="1.1"><rect x="0" y="0" width="900" height="600" fill="#fdb200"></rect><defs><linearGradient id="grad1_0" x1="33.3%" y1="0%" x2="100%" y2="100%"><stop offset="20%" stop-color="#d98200" stop-opacity="1"></stop><stop offset="80%" stop-color="#d98200" stop-opacity="1"></stop></linearGradient></defs><defs><linearGradient id="grad1_1" x1="33.3%" y1="0%" x2="100%" y2="100%"><stop offset="20%" stop-color="#d98200" stop-opacity="1"></stop><stop offset="80%" stop-color="#e28e00" stop-opacity="1"></stop></linearGradient></defs><defs><linearGradient id="grad1_2" x1="33.3%" y1="0%" x2="100%" y2="100%"><stop offset="20%" stop-color="#ec9a00" stop-opacity="1"></stop><stop offset="80%" stop-color="#e28e00" stop-opacity="1"></stop></linearGradient></defs><defs><linearGradient id="grad1_3" x1="33.3%" y1="0%" x2="100%" y2="100%"><stop offset="20%" stop-color="#ec9a00" stop-opacity="1"></stop><stop offset="80%" stop-color="#f5a600" stop-opacity="1"></stop></linearGradient></defs><defs><linearGradient id="grad1_4" x1="33.3%" y1="0%" x2="100%" y2="100%"><stop offset="20%" stop-color="#fdb200" stop-opacity="1"></stop><stop offset="80%" stop-color="#f5a600" stop-opacity="1"></stop></linearGradient></defs><defs><linearGradient id="grad2_0" x1="0%" y1="0%" x2="66.7%" y2="100%"><stop offset="20%" stop-color="#d98200" stop-opacity="1"></stop><stop offset="80%" stop-color="#d98200" stop-opacity="1"></stop></linearGradient></defs><defs><linearGradient id="grad2_1" x1="0%" y1="0%" x2="66.7%" y2="100%"><stop offset="20%" stop-color="#e28e00" stop-opacity="1"></stop><stop offset="80%" stop-color="#d98200" stop-opacity="1"></stop></linearGradient></defs><defs><linearGradient id="grad2_2" x1="0%" y1="0%" x2="66.7%" y2="100%"><stop offset="20%" stop-color="#e28e00" stop-opacity="1"></stop><stop offset="80%" stop-color="#ec9a00" stop-opacity="1"></stop></linearGradient></defs><defs><linearGradient id="grad2_3" x1="0%" y1="0%" x2="66.7%" y2="100%"><stop offset="20%" stop-color="#f5a600" stop-opacity="1"></stop><stop offset="80%" stop-color="#ec9a00" stop-opacity="1"></stop></linearGradient></defs><defs><linearGradient id="grad2_4" x1="0%" y1="0%" x2="66.7%" y2="100%"><stop offset="20%" stop-color="#f5a600" stop-opacity="1"></stop><stop offset="80%" stop-color="#fdb200" stop-opacity="1"></stop></linearGradient></defs><g transform="translate(900, 0)"><path d="M0 351.5C-35.7 340.8 -71.4 330.1 -102.6 315.8C-133.8 301.4 -160.4 283.4 -194 267C-227.6 250.6 -268.2 235.7 -284.4 206.6C-300.6 177.5 -292.5 134.2 -299.6 97.3C-306.7 60.5 -329.1 30.3 -351.5 0L0 0Z" fill="#f9ac00"></path><path d="M0 281.2C-28.6 272.7 -57.1 264.1 -82.1 252.6C-107 241.1 -128.3 226.7 -155.2 213.6C-182.1 200.4 -214.5 188.6 -227.5 165.3C-240.5 142 -234 107.3 -239.7 77.9C-245.4 48.4 -263.3 24.2 -281.2 0L0 0Z" fill="#f0a000"></path><path d="M0 210.9C-21.4 204.5 -42.9 198.1 -61.6 189.5C-80.3 180.8 -96.2 170 -116.4 160.2C-136.5 150.3 -160.9 141.4 -170.6 124C-180.4 106.5 -175.5 80.5 -179.7 58.4C-184 36.3 -197.5 18.2 -210.9 0L0 0Z" fill="#e79400"></path><path d="M0 140.6C-14.3 136.3 -28.6 132 -41 126.3C-53.5 120.6 -64.1 113.4 -77.6 106.8C-91 100.2 -107.3 94.3 -113.8 82.7C-120.2 71 -117 53.7 -119.8 38.9C-122.7 24.2 -131.6 12.1 -140.6 0L0 0Z" fill="#de8800"></path><path d="M0 70.3C-7.1 68.2 -14.3 66 -20.5 63.2C-26.8 60.3 -32.1 56.7 -38.8 53.4C-45.5 50.1 -53.6 47.1 -56.9 41.3C-60.1 35.5 -58.5 26.8 -59.9 19.5C-61.3 12.1 -65.8 6.1 -70.3 0L0 0Z" fill="#d98200"></path></g><g transform="translate(0, 600)"><path d="M0 -351.5C33.9 -340.3 67.7 -329.1 104.1 -320.5C140.6 -311.9 179.6 -306 206.6 -284.4C233.7 -262.9 248.7 -225.7 267 -194C285.3 -162.2 306.8 -135.9 321.5 -104.4C336.1 -73 343.8 -36.5 351.5 0L0 0Z" fill="#f9ac00"></path><path d="M0 -281.2C27.1 -272.3 54.2 -263.3 83.3 -256.4C112.5 -249.5 143.7 -244.8 165.3 -227.5C186.9 -210.3 198.9 -180.6 213.6 -155.2C228.2 -129.8 245.5 -108.7 257.2 -83.6C268.9 -58.4 275.1 -29.2 281.2 0L0 0Z" fill="#f0a000"></path><path d="M0 -210.9C20.3 -204.2 40.6 -197.5 62.5 -192.3C84.3 -187.1 107.8 -183.6 124 -170.6C140.2 -157.7 149.2 -135.4 160.2 -116.4C171.2 -97.3 184.1 -81.5 192.9 -62.7C201.7 -43.8 206.3 -21.9 210.9 0L0 0Z" fill="#e79400"></path><path d="M0 -140.6C13.5 -136.1 27.1 -131.6 41.7 -128.2C56.2 -124.8 71.8 -122.4 82.7 -113.8C93.5 -105.1 99.5 -90.3 106.8 -77.6C114.1 -64.9 122.7 -54.4 128.6 -41.8C134.4 -29.2 137.5 -14.6 140.6 0L0 0Z" fill="#de8800"></path><path d="M0 -70.3C6.8 -68.1 13.5 -65.8 20.8 -64.1C28.1 -62.4 35.9 -61.2 41.3 -56.9C46.7 -52.6 49.7 -45.1 53.4 -38.8C57.1 -32.4 61.4 -27.2 64.3 -20.9C67.2 -14.6 68.8 -7.3 70.3 0L0 0Z" fill="#d98200"></path></g></svg>