<svg id="visual" viewBox="0 0 900 600" width="900" height="600" xmlns="http://www.w3.org/2000/svg" xmlns:xlink="http://www.w3.org/1999/xlink" version="1.1"><rect x="0" y="0" width="900" height="600" fill="#001220"></rect><path d="M0 149L12.5 145.3C25 141.7 50 134.3 75 130.3C100 126.3 125 125.7 150 128.5C175 131.3 200 137.7 225 137.8C250 138 275 132 300 134.7C325 137.3 350 148.7 375 153.5C400 158.3 425 156.7 450 153C475 149.3 500 143.7 525 145.2C550 146.7 575 155.3 600 153.7C625 152 650 140 675 133C700 126 725 124 750 127.7C775 131.3 800 140.7 825 140.2C850 139.7 875 129.3 887.5 124.2L900 119L900 0L887.5 0C875 0 850 0 825 0C800 0 775 0 750 0C725 0 700 0 675 0C650 0 625 0 600 0C575 0 550 0 525 0C500 0 475 0 450 0C425 0 400 0 375 0C350 0 325 0 300 0C275 0 250 0 225 0C200 0 175 0 150 0C125 0 100 0 75 0C50 0 25 0 12.5 0L0 0Z" fill="#fa7268"></path><path d="M0 100L12.5 100.3C25 100.7 50 101.3 75 103C100 104.7 125 107.3 150 109.8C175 112.3 200 114.7 225 112.8C250 111 275 105 300 105.8C325 106.7 350 114.3 375 118.5C400 122.7 425 123.3 450 125.8C475 128.3 500 132.7 525 130.5C550 128.3 575 119.7 600 118.2C625 116.7 650 122.3 675 119.8C700 117.3 725 106.7 750 103.7C775 100.7 800 105.3 825 106.7C850 108 875 106 887.5 105L900 104L900 0L887.5 0C875 0 850 0 825 0C800 0 775 0 750 0C725 0 700 0 675 0C650 0 625 0 600 0C575 0 550 0 525 0C500 0 475 0 450 0C425 0 400 0 375 0C350 0 325 0 300 0C275 0 250 0 225 0C200 0 175 0 150 0C125 0 100 0 75 0C50 0 25 0 12.5 0L0 0Z" fill="#f16367"></path><path d="M0 83L12.5 84.7C25 86.3 50 89.7 75 91.3C100 93 125 93 150 94.5C175 96 200 99 225 100.2C250 101.3 275 100.7 300 101.8C325 103 350 106 375 106.7C400 107.3 425 105.7 450 105.3C475 105 500 106 525 101.3C550 96.7 575 86.3 600 86.5C625 86.7 650 97.3 675 98.7C700 100 725 92 750 92.2C775 92.3 800 100.7 825 101.7C850 102.7 875 96.3 887.5 93.2L900 90L900 0L887.5 0C875 0 850 0 825 0C800 0 775 0 750 0C725 0 700 0 675 0C650 0 625 0 600 0C575 0 550 0 525 0C500 0 475 0 450 0C425 0 400 0 375 0C350 0 325 0 300 0C275 0 250 0 225 0C200 0 175 0 150 0C125 0 100 0 75 0C50 0 25 0 12.5 0L0 0Z" fill="#e85467"></path><path d="M0 89L12.5 84.7C25 80.3 50 71.7 75 68.5C100 65.3 125 67.7 150 66C175 64.3 200 58.7 225 57.3C250 56 275 59 300 62.5C325 66 350 70 375 71.5C400 73 425 72 450 71.7C475 71.3 500 71.7 525 73.7C550 75.7 575 79.3 600 78.2C625 77 650 71 675 68.7C700 66.3 725 67.7 750 70.7C775 73.7 800 78.3 825 75.7C850 73 875 63 887.5 58L900 53L900 0L887.5 0C875 0 850 0 825 0C800 0 775 0 750 0C725 0 700 0 675 0C650 0 625 0 600 0C575 0 550 0 525 0C500 0 475 0 450 0C425 0 400 0 375 0C350 0 325 0 300 0C275 0 250 0 225 0C200 0 175 0 150 0C125 0 100 0 75 0C50 0 25 0 12.5 0L0 0Z" fill="#de4467"></path><path d="M0 48L12.5 47.3C25 46.7 50 45.3 75 43.5C100 41.7 125 39.3 150 40.3C175 41.3 200 45.7 225 48C250 50.3 275 50.7 300 50.5C325 50.3 350 49.7 375 50C400 50.3 425 51.7 450 52.3C475 53 500 53 525 52.7C550 52.3 575 51.7 600 53.3C625 55 650 59 675 58.5C700 58 725 53 750 50.5C775 48 800 48 825 47.5C850 47 875 46 887.5 45.5L900 45L900 0L887.5 0C875 0 850 0 825 0C800 0 775 0 750 0C725 0 700 0 675 0C650 0 625 0 600 0C575 0 550 0 525 0C500 0 475 0 450 0C425 0 400 0 375 0C350 0 325 0 300 0C275 0 250 0 225 0C200 0 175 0 150 0C125 0 100 0 75 0C50 0 25 0 12.5 0L0 0Z" fill="#d23467"></path><path d="M0 26L12.5 28C25 30 50 34 75 35.3C100 36.7 125 35.3 150 32.3C175 29.3 200 24.7 225 24C250 23.3 275 26.7 300 29.5C325 32.3 350 34.7 375 34.5C400 34.3 425 31.7 450 31C475 30.3 500 31.7 525 29.8C550 28 575 23 600 22.8C625 22.7 650 27.3 675 28.5C700 29.7 725 27.3 750 27C775 26.7 800 28.3 825 28.7C850 29 875 28 887.5 27.5L900 27L900 0L887.5 0C875 0 850 0 825 0C800 0 775 0 750 0C725 0 700 0 675 0C650 0 625 0 600 0C575 0 550 0 525 0C500 0 475 0 450 0C425 0 400 0 375 0C350 0 325 0 300 0C275 0 250 0 225 0C200 0 175 0 150 0C125 0 100 0 75 0C50 0 25 0 12.5 0L0 0Z" fill="#c62368"></path></svg>